<svg id="Layer_1" data-name="Layer 1" xmlns="http://www.w3.org/2000/svg" viewBox="0 0 1227.71 198.76"><defs><style>.cls-1{fill:#fff;}.cls-2{fill:#abaaaa;}.cls-3{fill:#a3a3a3;}</style></defs><path class="cls-1" d="M477.24,778H525a8.85,8.85,0,0,1,8.85,8.85v6.25A8.85,8.85,0,0,1,525,802H451.65a8.85,8.85,0,0,1-8.85-8.85V739.89a8.85,8.85,0,0,1,8.85-8.85h39.19a8.85,8.85,0,0,1,8.85,8.85v6.25a8.85,8.85,0,0,1-8.85,8.85h-13.6a8.85,8.85,0,0,0-8.85,8.85v5.35A8.85,8.85,0,0,0,477.24,778Z" transform="translate(-136.15 -650.62)"/><path class="cls-1" d="M595.58,802H557.43a8.85,8.85,0,0,1-8.85-8.85V692.64a8.86,8.86,0,0,1,8.85-8.86h38.15q28.7,0,46.11,17.09,17.73,17,17.74,41.85a56.78,56.78,0,0,1-17.74,42.19Q624.28,802,595.58,802Zm0-24.28q30.1,0,33.93-33.78a11.48,11.48,0,0,0,.08-1.44q-.39-30.16-33.36-34.35a11,11,0,0,0-1.28-.08h-9.07a8.85,8.85,0,0,0-8.85,8.85v52a8.85,8.85,0,0,0,8.85,8.85Z" transform="translate(-136.15 -650.62)"/><path class="cls-1" d="M726.22,803.87q-24.36,0-38.18-13.4t-13.9-39.16V692.64a8.86,8.86,0,0,1,8.85-8.86h10.75a8.86,8.86,0,0,1,8.85,8.86v57.93q0,14.64,6.38,21.5,6.54,7,17.57,7t17.58-6.7q6.38-6.87,6.38-20.93V692.64a8.86,8.86,0,0,1,8.85-8.86h10.74a8.86,8.86,0,0,1,8.85,8.86v57.77a67.07,67.07,0,0,1-3.68,23.3,44.76,44.76,0,0,1-10.38,16.59,45.31,45.31,0,0,1-16.75,10.22A67.83,67.83,0,0,1,726.22,803.87Z" transform="translate(-136.15 -650.62)"/><path class="cls-2" d="M853.09,802q-25.83,0-42.67-17.25-16.75-17.07-16.76-41.69,0-24.36,16.76-41.69Q827,683.8,854.07,683.78q16.35,0,27.31,5.07a61.93,61.93,0,0,1,11.4,6.6,8.87,8.87,0,0,1,1.42,12.91l-5.36,6.24a8.81,8.81,0,0,1-12,1.28,36.58,36.58,0,0,0-22.9-8.14A28.79,28.79,0,0,0,831.34,718q-9.08,10-9.07,24.76t9.07,25.1A28.37,28.37,0,0,0,853.91,778q14.18,0,24.12-8.44a8.76,8.76,0,0,1,11.87.6l4.67,4.71a8.92,8.92,0,0,1-.64,13.08,63.91,63.91,0,0,1-12.88,8.52Q869.94,802,853.09,802Z" transform="translate(-136.15 -650.62)"/><path class="cls-2" d="M1132.51,802h-11.18a8.84,8.84,0,0,1-7.32-3.87l-29.63-43.52a8.85,8.85,0,0,1,7.31-13.84h6.48q17.58,0,18.48-16.1,0-16.35-19-16.6h-15.43a8.86,8.86,0,0,0-8.85,8.85v76.23a8.85,8.85,0,0,1-8.85,8.85h-10.74a8.86,8.86,0,0,1-8.86-8.85V692.64a8.86,8.86,0,0,1,8.86-8.86h46.08q23.05,0,35.48,12.43,10.05,10.21,10.05,26.73,0,23.52-16.46,33.16a8.73,8.73,0,0,0-2.52,12.43l13.38,19.62A8.85,8.85,0,0,1,1132.51,802Z" transform="translate(-136.15 -650.62)"/><path class="cls-2" d="M1198.42,778h47.77a8.86,8.86,0,0,1,8.86,8.85v6.25a8.86,8.86,0,0,1-8.86,8.85h-73.36a8.85,8.85,0,0,1-8.85-8.85V739.89a8.85,8.85,0,0,1,8.85-8.85H1212a8.85,8.85,0,0,1,8.85,8.85v6.25A8.85,8.85,0,0,1,1212,755h-13.61a8.85,8.85,0,0,0-8.85,8.85v5.35A8.85,8.85,0,0,0,1198.42,778Z" transform="translate(-136.15 -650.62)"/><path class="cls-2" d="M1320.12,802a78.58,78.58,0,0,1-26.57-4.66,71,71,0,0,1-16.45-8.57,8.76,8.76,0,0,1-1.52-12.78l4.88-5.86a8.81,8.81,0,0,1,11.77-1.64,70.13,70.13,0,0,0,10.88,6.37,41.53,41.53,0,0,0,17.58,3.68q7.27,0,11.2-2.61a8.81,8.81,0,0,0,4-7.77v-.33a11,11,0,0,0-.82-4.5,10.31,10.31,0,0,0-3.19-3.35,38.91,38.91,0,0,0-6.87-3,87,87,0,0,0-9.89-3l-1.63-.48a122.73,122.73,0,0,1-16.11-4.83,41.88,41.88,0,0,1-12.42-6.7,27.59,27.59,0,0,1-7.85-9.73,34.38,34.38,0,0,1-2.7-14.39v-.33a34.71,34.71,0,0,1,2.86-14.22,32,32,0,0,1,8.59-11.2,41,41,0,0,1,13.32-7.44,55.55,55.55,0,0,1,16.92-2.45,71.45,71.45,0,0,1,24,3.84,68.15,68.15,0,0,1,12.84,6.12,8.78,8.78,0,0,1,2.43,12.47l-4.26,6.14a8.87,8.87,0,0,1-11.79,2.52,76.33,76.33,0,0,0-9.27-4.69,36.63,36.63,0,0,0-14.23-3q-6.78,0-10,2.7a8.16,8.16,0,0,0-3.51,6.86v.33a8.87,8.87,0,0,0,1.22,4.9,9,9,0,0,0,3.52,3.52,39.3,39.3,0,0,0,7.35,3q3.2,1,7.52,2.12l4.5,1.23a118.4,118.4,0,0,1,15.94,5.31,48.54,48.54,0,0,1,11.86,7,26.67,26.67,0,0,1,7.35,9.73,32.79,32.79,0,0,1,2.37,13.08v.33a34.89,34.89,0,0,1-3.19,15.2,30.5,30.5,0,0,1-8.82,11.37,41.39,41.39,0,0,1-13.9,7.19A60.39,60.39,0,0,1,1320.12,802Z" transform="translate(-136.15 -650.62)"/><rect class="cls-2" x="306.65" y="33.33" width="91.07" height="23.95" rx="8.85"/><rect class="cls-1" x="1027.83" y="33.33" width="91.07" height="23.95" rx="8.85"/><path class="cls-2" d="M1025.74,719.67A58.1,58.1,0,0,0,1013.07,701a59.66,59.66,0,0,0-19.45-12.83,68.38,68.38,0,0,0-50,0,59.85,59.85,0,0,0-19.79,13A61.91,61.91,0,0,0,911.05,720a58.05,58.05,0,0,0-4.49,22.89v.33a57.24,57.24,0,0,0,17.08,41.36,62.59,62.59,0,0,0,19.62,12.92,69.47,69.47,0,0,0,50,0,59.49,59.49,0,0,0,19.54-12.92,62.56,62.56,0,0,0,12.91-18.88,58.27,58.27,0,0,0,4.5-22.81v-.33A58.13,58.13,0,0,0,1025.74,719.67ZM1006.2,746.6H968.06a5.23,5.23,0,0,1-5.23-5.23V703.23a5.24,5.24,0,0,1,10.47,0v32.91h32.9a5.23,5.23,0,0,1,0,10.46Z" transform="translate(-136.15 -650.62)"/><path class="cls-3" d="M353.44,654.06H326.58v19.53H351V781H155.68V673.59h24.41V654.06H153.24a17.17,17.17,0,0,0-17.09,17.09V803a17.17,17.17,0,0,0,17.09,17.09H228c-1.17,4.88-4.2,12.79-12.3,21a4.62,4.62,0,0,0-1.08,5.27,4.88,4.88,0,0,0,4.5,3h68.36a4.86,4.86,0,0,0,4.49-3,4.63,4.63,0,0,0-1.07-5.27c-8.11-8.11-11.23-16.12-12.41-21h74.91A17.17,17.17,0,0,0,370.53,803V671.15A17.17,17.17,0,0,0,353.44,654.06Z" transform="translate(-136.15 -650.62)"/><rect class="cls-1" x="64.36" width="107.38" height="30.07"/><rect class="cls-1" x="64.36" y="79.77" width="107.38" height="30.07"/><rect class="cls-1" x="64.2" y="40.37" width="79.73" height="30.07"/></svg>